#!OML:ASF G:\JayActor3\Patient Classification 1\Patient 1\Session 6\male.ASF
:FULLY-SPECIFIED
:DEGREES
1978
root -34.963 16.363 -12.8326 532.742 -25.929 -539.932
lowerback 6.6923 0.124575 8.9793
upperback -2.64775 0.993348 3.39705
thorax -6.47551 0.0989432 -1.56579
lowerneck 7.15944 10.2678 10.2978
upperneck -1.81352 14.4193 -5.13008
head -0.630981 7.25158 -3.68593
rclavicle 9.93923e-015 1.43125e-014
rhumerus -34.122 16.8705 -70.2838
rradius 34.6282
rwrist 4.9811
rhand -9.75012 0.655961
rfingers 7.12502
rthumb 16.2243 -28.6852
lclavicle 9.93923e-015 1.43125e-014
lhumerus -52.3206 -16.3507 80.8986
lradius 37.8715
lwrist 23.3038
lhand -6.35998 8.35706
lfingers 7.12502
lthumb 19.4863 37.4006
rfemur 2.5362 -5.9057 23.2087
rtibia 31.8634
rfoot -28.9847 -12.4332
rtoes 9.12942
lfemur -13.123 29.0053 -16.4938
ltibia 37.6708
lfoot -12.3451 13.3901
ltoes -5.79905
1979
root -34.9846 16.346 -12.8587 532.707 -25.6539 -539.864
lowerback 6.56295 0.160593 8.91636
upperback -2.71905 1.02446 3.36837
thorax -6.47441 0.114827 -1.56373
lowerneck 7.19321 10.2851 10.2875
upperneck -1.96347 14.4441 -5.14318
head -0.683621 7.26116 -3.69765
rclavicle -2.38542e-015 -3.18055e-015
rhumerus -34.3346 16.8036 -70.6705
rradius 34.7804
rwrist 4.89216
rhand -9.81264 0.557271
rfingers 7.12502
rthumb 16.1641 -28.7887
lclavicle -2.38542e-015 -3.18055e-015
lhumerus -52.4307 -16.0666 80.6114
lradius 37.4827
lwrist 23.2368
lhand -6.39386 8.3395
lfingers 7.12502
lthumb 19.4537 37.3863
rfemur 2.59945 -5.93395 23.1795
rtibia 32.0079
rfoot -29.0609 -12.1159
rtoes 8.81665
lfemur -12.429 28.2374 -16.4171
ltibia 36.9699
lfoot -13.0331 13.8865
ltoes -6.56104
1980
root -35.0068 16.3314 -12.8848 532.667 -25.3672 -539.764
lowerback 6.42207 0.195951 8.88709
upperback -2.78517 1.05532 3.34077
thorax -6.46084 0.129478 -1.57894
lowerneck 7.22224 10.3059 10.2696
upperneck -2.11155 14.4724 -5.15081
head -0.735545 7.27237 -3.70588
rclavicle -8.74653e-015 -2.8625e-014
rhumerus -34.5566 16.7174 -71.0691
rradius 34.9293
rwrist 4.78812
rhand -9.83495 0.557772
rfingers 7.12502
rthumb 16.1426 -28.79
lclavicle -8.74653e-015 -2.8625e-014
lhumerus -52.5039 -15.7626 80.295
lradius 37.0742
lwrist 23.1714
lhand -6.43357 8.32028
lfingers 7.12502
lthumb 19.4155 37.371
rfemur 2.68543 -5.97738 23.1703
rtibia 32.0989
rfoot -29.1168 -11.7454
rtoes 8.61334
lfemur -11.7753 27.4431 -16.313
ltibia 36.2794
lfoot -13.6114 14.5078
ltoes -7.34694
1981
root -35.0295 16.3193 -12.9108 532.628 -25.0706 -539.645
lowerback 6.26683 0.232324 8.88282
upperback -2.84503 1.08712 3.31005
thorax -6.43185 0.144066 -1.6112
lowerneck 7.23481 10.3309 10.2422
upperneck -2.24467 14.5043 -5.14488
head -0.781171 7.28526 -3.70609
rclavicle 1.86858e-014 3.18055e-014
rhumerus -34.7839 16.6019 -71.4747
rradius 35.0677
rwrist 4.67481
rhand -9.89978 0.604857
rfingers 7.12502
rthumb 16.0802 -28.748
lclavicle 1.86858e-014 3.18055e-014
lhumerus -52.5391 -15.4482 79.9554
lradius 36.6489
lwrist 23.1127
lhand -6.47821 8.29699
lfingers 7.12502
lthumb 19.3726 37.352
rfemur 2.79838 -6.02596 23.171
rtibia 32.127
rfoot -29.1535 -11.3336
rtoes 8.51833
lfemur -11.1746 26.6046 -16.1943
ltibia 35.6148
lfoot -14.2188 15.1689
ltoes -7.38189
1982
root -35.0528 16.3095 -12.9365 532.596 -24.7646 -539.505
lowerback 6.09502 0.268378 8.90276
upperback -2.90221 1.11778 3.27962
thorax -6.39026 0.157359 -1.65615
lowerneck 7.24034 10.3717 10.1831
upperneck -2.3607 14.5547 -5.10251
head -0.823622 7.30702 -3.68741
rclavicle -3.02153e-014 -5.08889e-014
rhumerus -35.0145 16.467 -71.8879
rradius 35.1934
rwrist 4.55769
rhand -9.99592 0.674878
rfingers 7.12502
rthumb 15.9876 -28.6854
lclavicle -3.02153e-014 -5.08889e-014
lhumerus -52.5407 -15.1206 79.5961
lradius 36.2095
lwrist 23.0568
lhand -6.52228 8.27087
lfingers 7.12502
lthumb 19.3302 37.3301
rfemur 2.92108 -6.06046 23.194
rtibia 32.1067
rfoot -29.1803 -10.9137
rtoes 8.50003
lfemur -10.6417 25.6949 -16.0581
ltibia 34.9789
lfoot -14.8268 15.8789
ltoes -6.58252
1983
root -35.0761 16.3017 -12.9618 532.578 -24.4532 -539.355
lowerback 5.90668 0.30352 8.93587
upperback -2.95604 1.14568 3.24542
thorax -6.33553 0.16919 -1.71176
lowerneck 7.24257 10.414 10.1302
upperneck -2.47136 14.6071 -5.07274
head -0.862164 7.33015 -3.67347
rclavicle -2.38542e-015 -9.38264e-014
rhumerus -35.2391 16.3081 -72.3076
rradius 35.2949
rwrist 4.44782
rhand -10.1147 0.778894
rfingers 7.12502
rthumb 15.8732 -28.5905
lclavicle -2.38542e-015 -9.38264e-014
lhumerus -52.5095 -14.7901 79.2248
lradius 35.7566
lwrist 23.0058
lhand -6.58105 8.24914
lfingers 7.12502
lthumb 19.2737 37.314
rfemur 3.04092 -6.05495 23.2403
rtibia 32.0558
rfoot -29.2084 -10.5345
rtoes 8.4886
lfemur -10.1838 24.7854 -15.9284
ltibia 34.3864
lfoot -15.5131 16.5545
ltoes -4.57374
1984
root -35.1007 16.2947 -12.9881 532.587 -24.1438 -539.3
lowerback 5.69983 0.340078 8.90234
upperback -2.99222 1.16806 3.17857
thorax -6.25171 0.1835 -1.76438
lowerneck 7.24049 10.4607 10.0719
upperneck -2.57654 14.6644 -5.04145
head -0.8983 7.35587 -3.65755
rclavicle 2.34566e-014 0
rhumerus -35.4604 16.121 -72.7332
rradius 35.3772
rwrist 4.35394
rhand -10.2253 0.900672
rfingers 7.12502
rthumb 15.7667 -28.4772
lclavicle 2.34566e-014 0
lhumerus -52.4407 -14.4669 78.8451
lradius 35.2883
lwrist 22.9594
lhand -6.64688 8.22414
lfingers 7.12502
lthumb 19.2104 37.2954
rfemur 3.18407 -6.05123 23.1804
rtibia 32.0008
rfoot -29.221 -10.1487
rtoes 8.45201
lfemur -9.74236 23.9313 -15.8977
ltibia 33.8383
lfoot -16.3017 17.1612
ltoes -1.7506
